ffmpeg version 2026-06-08-git-6028720d70-essentials_build-www.gyan.dev Copyright (c) 2000-2026 the FFmpeg developers
  built with gcc 16.1.0 (Rev2, Built by MSYS2 project)
  configuration: --enable-gpl --enable-version3 --enable-static --disable-w32threads --disable-autodetect --enable-cairo --enable-fontconfig --enable-iconv --enable-gnutls --enable-libxml2 --enable-gmp --enable-bzlib --enable-lzma --enable-zlib --enable-libsrt --enable-libssh --enable-libzmq --enable-avisynth --enable-sdl2 --enable-libwebp --enable-libx264 --enable-libx265 --enable-libxvid --enable-libaom --enable-libopenjpeg --enable-libvpx --enable-mediafoundation --enable-libass --enable-libfreetype --enable-libfribidi --enable-libharfbuzz --enable-libvidstab --enable-libvmaf --enable-libzimg --enable-amf --enable-cuda-llvm --enable-cuvid --enable-dxva2 --enable-d3d11va --enable-d3d12va --enable-ffnvcodec --enable-libvpl --enable-nvdec --enable-nvenc --enable-vaapi --enable-openal --enable-libgme --enable-libopenmpt --enable-libopencore-amrwb --enable-libmp3lame --enable-libtheora --enable-libvo-amrwbenc --enable-libgsm --enable-libopencore-amrnb --enable-libopus --enable-libspeex --enable-libvorbis --enable-librubberband
  libavutil      60. 32.100 / 60. 32.100
  libavcodec     62. 36.101 / 62. 36.101
  libavformat    62. 19.101 / 62. 19.101
  libavdevice    62.  4.100 / 62.  4.100
  libavfilter    11. 17.100 / 11. 17.100
  libswscale      9.  8.100 /  9.  8.100
  libswresample   6.  4.100 /  6.  4.100
[aist#0:0/pcm_s16le @ 000002a4b1712500] Guessed Channel Layout: mono
Input #0, wav, from 'C:\Users\jerve\Desktop\AITranscriber\storage\app/private/audio-upload-sessions/f6bc8f24-4284-4552-acaf-1d5893c14431\chunk_00012.wav':
  Metadata:
    encoder         : Lavf62.19.101
  Duration: 00:05:00.00, bitrate: 256 kb/s
  Stream #0:0: Audio: pcm_s16le ([1][0][0][0] / 0x0001), 16000 Hz, mono, s16, 256 kb/s
Stream mapping:
  Stream #0:0 (pcm_s16le) -> atrim:default
  Stream #0:0 (pcm_s16le) -> atrim:default
  Stream #0:0 (pcm_s16le) -> atrim:default
  Stream #0:0 (pcm_s16le) -> atrim:default
  Stream #0:0 (pcm_s16le) -> atrim:default
  Stream #0:0 (pcm_s16le) -> atrim:default
  Stream #0:0 (pcm_s16le) -> atrim:default
  Stream #0:0 (pcm_s16le) -> atrim:default
  Stream #0:0 (pcm_s16le) -> atrim:default
  Stream #0:0 (pcm_s16le) -> atrim:default
  Stream #0:0 (pcm_s16le) -> atrim:default
  Stream #0:0 (pcm_s16le) -> atrim:default
  Stream #0:0 (pcm_s16le) -> atrim:default
  Stream #0:0 (pcm_s16le) -> atrim:default
  Stream #0:0 (pcm_s16le) -> atrim:default
  Stream #0:0 (pcm_s16le) -> atrim:default
  Stream #0:0 (pcm_s16le) -> atrim:default
  Stream #0:0 (pcm_s16le) -> atrim:default
  Stream #0:0 (pcm_s16le) -> atrim:default
  Stream #0:0 (pcm_s16le) -> atrim:default
  Stream #0:0 (pcm_s16le) -> atrim:default
  Stream #0:0 (pcm_s16le) -> atrim:default
  Stream #0:0 (pcm_s16le) -> atrim:default
  Stream #0:0 (pcm_s16le) -> atrim:default
  Stream #0:0 (pcm_s16le) -> atrim:default
  Stream #0:0 (pcm_s16le) -> atrim:default
  Stream #0:0 (pcm_s16le) -> atrim:default
  Stream #0:0 (pcm_s16le) -> atrim:default
  Stream #0:0 (pcm_s16le) -> atrim:default
  Stream #0:0 (pcm_s16le) -> atrim:default
  Stream #0:0 (pcm_s16le) -> atrim:default
  Stream #0:0 (pcm_s16le) -> atrim:default
  Stream #0:0 (pcm_s16le) -> atrim:default
  Stream #0:0 (pcm_s16le) -> atrim:default
  Stream #0:0 (pcm_s16le) -> atrim:default
  Stream #0:0 (pcm_s16le) -> atrim:default
  Stream #0:0 (pcm_s16le) -> atrim:default
  Stream #0:0 (pcm_s16le) -> atrim:default
  Stream #0:0 (pcm_s16le) -> atrim:default
  Stream #0:0 (pcm_s16le) -> atrim:default
  Stream #0:0 (pcm_s16le) -> atrim:default
  Stream #0:0 (pcm_s16le) -> atrim:default
  Stream #0:0 (pcm_s16le) -> atrim:default
  Stream #0:0 (pcm_s16le) -> atrim:default
  Stream #0:0 (pcm_s16le) -> atrim:default
  Stream #0:0 (pcm_s16le) -> atrim:default
  Stream #0:0 (pcm_s16le) -> atrim:default
  Stream #0:0 (pcm_s16le) -> atrim:default
  Stream #0:0 (pcm_s16le) -> atrim:default
  Stream #0:0 (pcm_s16le) -> atrim:default
  Stream #0:0 (pcm_s16le) -> atrim:default
  Stream #0:0 (pcm_s16le) -> atrim:default
  Stream #0:0 (pcm_s16le) -> atrim:default
  Stream #0:0 (pcm_s16le) -> atrim:default
  concat:out:a0 -> Stream #0:0 (pcm_s16le)
Press [q] to stop, [?] for help
Output #0, wav, to 'C:\Users\jerve\Desktop\AITranscriber\storage\app/private/audio-upload-sessions/f6bc8f24-4284-4552-acaf-1d5893c14431\chunk_00012-speech.wav':
  Metadata:
    ISFT            : Lavf62.19.101
  Stream #0:0: Audio: pcm_s16le ([1][0][0][0] / 0x0001), 16000 Hz, mono, s16, 256 kb/s
    Metadata:
      encoder         : Lavc62.36.101 pcm_s16le
size=    1536KiB time=00:00:51.90 bitrate= 242.4kbits/s speed= 100x elapsed=0:00:00.51    size=    4096KiB time=00:02:14.76 bitrate= 249.0kbits/s speed= 130x elapsed=0:00:01.03    [out#0/wav @ 000002a4b16b0dc0] video:0KiB audio:7392KiB subtitle:0KiB other streams:0KiB global headers:0KiB muxing overhead: 0.001030%
size=    7393KiB time=00:03:56.56 bitrate= 256.0kbits/s speed= 182x elapsed=0:00:01.29    
